<svg width="18" height="15" viewBox="0 0 18 15" fill="none" xmlns="http://www.w3.org/2000/svg">
<path d="M9.864 12.272L13.752 8.432C12.456 8.552 10.68 8.576 1.992 8.576C1.32 8.576 0.744 8.024 0.744 7.352C0.744 6.68 1.296 6.104 1.968 6.104C10.344 6.104 12.336 6.128 13.776 6.248L9.864 2.384C9.6 2.12 9.504 1.856 9.504 1.592C9.504 0.991999 10.08 0.487999 10.68 0.487999C10.944 0.487999 11.208 0.584 11.424 0.8L16.704 6.08C17.136 6.512 17.328 6.944 17.328 7.328C17.328 7.784 17.088 8.192 16.704 8.576L11.448 13.856C11.232 14.072 10.968 14.168 10.704 14.168C10.104 14.168 9.504 13.64 9.504 13.04C9.504 12.8 9.624 12.512 9.864 12.272Z" fill="#64EB81"/>
</svg>
