<svg xmlns="http://www.w3.org/2000/svg" width="48" height="48" viewBox="0 0 48 48" fill="none">
    <path d="M37 25V1H1V47H28" stroke="black" stroke-width="2"/>
    <path d="M10 16H28" stroke="black" stroke-width="2"/>
    <path d="M10 24H28" stroke="black" stroke-width="2"/>
    <path d="M10 32H19" stroke="black" stroke-width="2"/>
    <path d="M36.9049 28.2923C36.9349 28.2003 37.0651 28.2003 37.0951 28.2923L39.3607 35.2574H46.692C46.7889 35.2574 46.8291 35.3814 46.7507 35.4383L40.8197 39.7426L43.0852 46.7074C43.1151 46.7995 43.0097 46.8762 42.9313 46.8193L37 42.5147L31.0687 46.8193C30.9903 46.8762 30.8849 46.7995 30.9148 46.7074L33.1803 39.7426L27.2493 35.4383C27.1709 35.3814 27.2111 35.2574 27.308 35.2574H34.6393L36.9049 28.2923Z" stroke="black" stroke-width="2"/>
</svg>