<svg xmlns="http://www.w3.org/2000/svg" width="88" height="28" viewBox="0 0 88 28" fill="none">
    <g clip-path="url(#clip0_327_330)">
        <path fill-rule="evenodd" clip-rule="evenodd" d="M47.3149 7.32823C47.5266 7.54966 49.4315 12.825 49.6307 13.4762C49.8291 14.174 50.1093 14.8434 50.4649 15.4691C51.1248 15.6254 51.187 14.9351 51.3862 14.388C52.4694 11.4312 54.1129 7.11982 54.9346 4.21514C55.5073 2.80839 55.5571 2.43065 54.5238 2.43065C53.4904 2.43065 53.6024 3.13403 53.1916 4.04581C52.8305 5.7782 51.436 9.43835 50.9256 11.1186C50.9256 11.3401 50.9256 11.3401 50.6641 11.3401C49.805 8.83918 48.809 5.7782 47.8379 3.30336C47.5764 2.82142 47.1157 2.71721 46.8045 3.79833C46.2815 5.51769 45.5594 7.56268 44.9991 9.22994C44.9991 9.22994 44.3268 11.3401 44.277 11.4443C43.921 10.8453 43.6602 10.1899 43.5051 9.50348C42.7332 7.51058 42.0608 5.36138 41.401 3.36848C41.2391 2.99075 41.2391 2.76931 40.878 2.54788C40.5161 2.40757 40.1248 2.37158 39.745 2.44368C38.7241 2.61301 39.384 3.47269 39.5956 4.11094C40.8407 7.61479 42.2227 11.822 43.6047 15.1565C43.637 15.2392 43.6896 15.3114 43.7572 15.366C43.8247 15.4206 43.9048 15.4556 43.9894 15.4675C44.074 15.4793 44.1601 15.4677 44.239 15.4337C44.3179 15.3997 44.3868 15.3445 44.4389 15.2738C44.6381 14.87 47.1655 7.32823 47.3149 7.32823Z" fill="white"/>
        <path fill-rule="evenodd" clip-rule="evenodd" d="M0.202962 2.65194C0.151496 2.86892 0.168978 3.09754 0.252764 3.30321C0.464422 4.21499 -0.158102 14.6093 0.00375449 15.0261C0.507718 15.2632 1.07275 15.3182 1.60987 15.1824C1.85888 14.9089 1.75927 14.6484 1.75927 14.2185C1.75927 12.382 1.90868 10.6105 1.90868 8.7218C1.97093 8.01843 2.02073 7.53648 2.02073 7.10664C2.02073 6.6768 2.02073 6.7289 2.12034 6.6247C2.21994 6.5205 3.85095 9.4903 4.01281 9.81594C4.32407 10.4542 4.93414 11.4311 5.34501 12.1866C5.96754 13.3719 6.2788 12.5643 6.4282 12.2908C6.78927 11.8088 9.57817 6.68983 9.77738 6.58562C9.96414 6.79403 9.96414 11.913 9.96414 12.2908C9.96414 15.0913 9.65288 15.3648 11.3461 15.2476C11.8691 15.2476 11.9189 14.8177 11.8691 14.3358C11.8691 13.424 11.8691 12.395 11.8691 11.4832C11.7321 9.16467 11.6325 6.5205 11.6325 4.21499C11.6325 3.94146 11.7321 2.91245 11.7321 2.75614C11.5797 2.57645 11.3732 2.45656 11.1468 2.41629C10.9204 2.37603 10.6877 2.4178 10.4871 2.53471C10.126 2.75614 10.0264 3.23808 9.76493 3.56372C8.71909 5.50451 7.31219 7.70581 6.3286 9.5424C5.96754 10.1937 5.96754 9.97224 5.65627 9.5424C4.98395 8.51339 4.11241 6.74193 3.50234 5.71292L2.25729 3.56372C2.08423 3.19023 1.86212 2.84387 1.59742 2.53471C1.2488 2.2742 0.564026 2.48261 0.202962 2.65194Z" fill="white"/>
        <path fill-rule="evenodd" clip-rule="evenodd" d="M65.9015 8.68286C66.3422 8.30669 66.8649 8.05038 67.4232 7.93675C67.9815 7.82312 68.5579 7.8557 69.1013 8.03159C70.7447 8.78706 70.9564 11.327 70.2343 12.5644C69.9267 13.0467 69.4837 13.4172 68.9663 13.6248C68.4489 13.8325 67.8827 13.867 67.3457 13.7237C66.8256 13.6163 66.3333 13.3943 65.9015 13.0724V8.68286ZM65.9015 6.84627C65.8238 5.42766 65.8238 4.00556 65.9015 2.58694C65.9015 2.0008 65.7023 1.89659 65.1794 2.105C63.9343 2.65207 63.9343 2.43064 64.1086 3.61596C64.2082 4.21513 64.1086 11.1577 64.1086 12.1346C64.1086 14.0624 63.8471 14.5052 66.524 15.3128C67.2862 15.4801 68.0729 15.4844 68.8367 15.3254C69.6006 15.1665 70.3258 14.8476 70.9688 14.388C73.5959 12.1346 72.8738 5.77818 68.0803 6.26012C67.6625 6.28378 67.2466 6.33599 66.8353 6.41643C66.6734 6.46853 66.0633 6.84627 65.9886 6.84627H65.9015Z" fill="white"/>
        <path fill-rule="evenodd" clip-rule="evenodd" d="M29.5964 15.1435C29.7911 14.4642 29.8463 13.7495 29.7583 13.0464C29.7073 12.3092 29.7073 11.5692 29.7583 10.8321C29.9077 10.8321 30.0695 11.1056 30.3808 11.4312C30.692 11.7569 33.2568 14.5573 33.6677 14.87C33.8111 15.0095 33.9839 15.1118 34.1721 15.1683C34.3603 15.2249 34.5586 15.2343 34.7509 15.1956C35.112 15.1956 35.6847 15.1956 35.8839 14.9351C35.8839 14.5573 35.1618 13.9582 34.8505 13.6325C34.5392 13.3069 34.1408 12.8901 33.7798 12.4472C32.9878 11.7181 32.2472 10.9302 31.5636 10.0896C31.5636 9.97239 34.3898 7.48452 34.9128 7.01561C35.112 6.79417 35.3236 6.74207 35.2738 6.41644C34.633 6.20962 33.9475 6.20962 33.3066 6.41644C33.0576 6.53366 31.3519 8.14882 30.8913 8.57866C30.7418 8.73497 29.8579 9.71188 29.7583 9.65977C29.6089 9.16481 29.7583 2.43064 29.6587 2.05291C29.559 1.67517 27.8035 2.27434 27.8533 2.92561C27.9509 3.38321 28.001 3.85049 28.0027 4.31934V13.6325C28.0027 13.9582 27.9031 14.9351 28.1148 15.0914C28.5992 15.2209 29.1048 15.2387 29.5964 15.1435Z" fill="white"/>
        <path fill-rule="evenodd" clip-rule="evenodd" d="M16.1855 10.7278C16.7582 10.5715 18.6756 11.0534 18.7627 11.5875C18.8125 12.1638 18.8125 12.7436 18.7627 13.3199C18.4017 13.8018 15.924 14.7657 15.1023 13.0463C14.9915 12.8021 14.9341 12.5351 14.9341 12.2648C14.9341 11.9945 14.9915 11.7275 15.1023 11.4833C15.2218 11.2847 15.3801 11.1147 15.5668 10.9845C15.7534 10.8544 15.9643 10.7669 16.1855 10.7278ZM18.8125 10.0765C18.3287 9.74121 17.7876 9.5068 17.2189 9.38617C16.5101 9.30406 15.793 9.35702 15.1023 9.54248C14.5207 9.71674 14.0079 10.0816 13.6393 10.5835C13.2708 11.0853 13.0658 11.6977 13.0547 12.3305C13.0435 12.9633 13.2268 13.5831 13.5774 14.0988C13.9281 14.6145 14.4276 14.999 15.0027 15.1955C15.9875 15.5469 17.0558 15.5469 18.0406 15.1955C18.2523 15.0913 18.6631 14.8178 18.8125 14.7657C18.9619 14.7136 19.0242 15.1434 19.2234 15.2476C19.4226 15.3518 20.3564 15.2476 20.6178 14.9871C20.8793 14.7266 20.9291 14.7657 20.7672 14.3879C20.5264 13.8895 20.4393 13.3252 20.5182 12.7728V8.8912C20.5834 8.3416 20.455 7.78598 20.1572 7.32815C19.1736 5.28315 13.2472 6.09073 13.7203 7.82311C14.1934 9.5555 14.9653 7.22394 17.5799 7.54958C18.9868 7.70589 18.8374 9.11264 18.8374 10.0765H18.8125Z" fill="white"/>
        <path fill-rule="evenodd" clip-rule="evenodd" d="M79.7604 9.81661H75.4899C75.5471 9.28178 75.7804 8.78445 76.1497 8.40986C76.5529 8.03997 77.0595 7.81612 77.594 7.77161C77.8724 7.74755 78.1526 7.78244 78.4179 7.8742C78.6832 7.96595 78.928 8.11269 79.1379 8.30566C79.3491 8.48748 79.5158 8.71944 79.6241 8.98224C79.7324 9.24505 79.7791 9.5311 79.7604 9.81661ZM75.3778 11.2103C75.6891 11.054 80.358 11.2103 81.2046 11.2103C82.0513 11.2103 81.6653 8.30566 80.1214 7.12034C79.4907 6.6284 78.7399 6.33311 77.9556 6.26857C77.1713 6.20402 76.3855 6.37285 75.689 6.75557C74.9925 7.13829 74.4137 7.71928 74.0194 8.43147C73.625 9.14366 73.4313 9.95801 73.4604 10.7805C73.4309 11.5793 73.6086 12.3716 73.9746 13.0734C74.3407 13.7751 74.8815 14.3601 75.5397 14.7663C76.9217 15.7432 80.6319 15.6911 81.0926 14.1801C81.6653 12.2393 80.3207 13.3205 79.8475 13.5289C79.4497 13.6995 79.0303 13.8092 78.6025 13.8545C75.8509 14.1801 75.1786 11.6402 75.3778 11.2103Z" fill="white"/>
        <path fill-rule="evenodd" clip-rule="evenodd" d="M56.6904 9.81567C56.7341 9.25934 56.9759 8.74044 57.3678 8.36172C57.7598 7.983 58.2734 7.77206 58.807 7.77067C59.8777 7.65344 61.1228 8.63035 60.9111 9.81567H56.6904ZM56.4788 11.1182C56.7402 11.1182 61.5835 11.1182 62.2558 11.1182C62.9281 11.1182 62.8161 10.6884 62.7663 10.1543C62.7299 9.4311 62.5146 8.73015 62.1414 8.12015C61.7682 7.51015 61.25 7.01201 60.6375 6.67454C60.025 6.33707 59.3392 6.17183 58.6472 6.19501C57.9553 6.2182 57.281 6.429 56.6904 6.80679C56.0263 7.21726 55.4832 7.81131 55.1208 8.52366C54.7584 9.23602 54.5907 10.0391 54.6361 10.8447C54.5833 11.6399 54.7544 12.4339 55.1284 13.1284C55.5024 13.8229 56.0627 14.3875 56.7402 14.7523C58.4957 15.8855 61.9445 15.4036 62.2558 14.1141C62.2558 13.7363 62.5048 12.8115 61.9445 13.033C61.2677 13.4332 60.531 13.7107 59.7657 13.8536C59.3577 13.9106 58.9429 13.8824 58.5454 13.7706C58.1479 13.6588 57.7756 13.4656 57.4499 13.2023C57.0017 12.8245 56.2796 11.6913 56.4788 11.1182Z" fill="white"/>
        <path fill-rule="evenodd" clip-rule="evenodd" d="M84.4422 15.195C84.7535 14.8694 84.7037 14.713 84.7037 14.2311V12.9286C84.7037 11.2092 84.3924 8.35662 86.2973 7.92678C86.7082 7.82258 86.8078 8.18729 87.3307 8.08309C87.6391 7.79364 87.8707 7.42571 88.003 7.015C88.003 6.19439 86.758 6.03809 85.625 6.57213C85.2639 6.74146 84.9651 7.32761 84.7037 7.37971C84.7037 6.89777 84.8033 6.68936 84.492 6.25952C84.0929 6.29956 83.7066 6.42834 83.359 6.63726C82.8485 6.89777 82.7489 6.89777 82.8485 7.54904C82.9481 8.20032 82.8485 12.668 82.8485 13.7361C82.8983 15.3643 82.8983 15.3122 84.4422 15.195Z" fill="white"/>
        <path fill-rule="evenodd" clip-rule="evenodd" d="M23.7338 15.1436V15.0394C23.8783 13.7165 23.9158 12.3831 23.8459 11.0536C23.8459 10.0246 24.0949 8.35733 25.1781 8.03169C26.0496 7.70605 26.0994 8.56573 26.6721 8.03169C28.0043 6.57284 26.2114 5.98669 25.1283 6.46863C24.0451 6.95058 24.1945 7.32832 23.8832 7.43252C23.8582 7.22057 23.8582 7.00622 23.8832 6.79427C23.8832 6.52074 23.7712 6.52074 23.6715 6.36443C23.2723 6.36103 22.8801 6.47377 22.5386 6.69007C22.0281 6.89847 21.8662 6.95058 22.0281 7.60185C22.1376 8.60045 22.1709 9.60659 22.1277 10.6107V13.5805C22.2397 15.1957 22.0281 15.3129 23.7338 15.1436Z" fill="white"/>
        <path fill-rule="evenodd" clip-rule="evenodd" d="M46.9539 16.8759C44.8986 17.1411 42.8776 17.6435 40.9279 18.3738C40.3178 18.6473 39.6828 18.8036 39.0728 19.0772C37.8277 19.5591 36.6574 19.9889 35.4248 20.4839C35.0139 20.6402 32.0756 21.552 31.5651 21.6692C29.075 22.3075 25.3399 23.0629 22.9618 21.9297C21.8288 21.3436 21.7168 23.1672 24.294 23.8184C25.8012 24.0946 27.3478 24.0234 28.826 23.61C30.0711 23.3365 31.5651 22.8545 32.7479 22.4768C33.9307 22.0991 35.3252 21.6692 36.6076 21.2915C36.9188 21.1743 37.1678 21.0701 37.5289 20.9658L39.4338 20.3667C39.7949 20.2625 40.0563 20.1062 40.3676 19.9889L42.3348 19.507C42.6958 19.4028 42.9573 19.2986 43.2686 19.1814C45.8753 18.5996 48.5341 18.3114 51.1995 18.3217C51.8594 18.3217 52.843 18.491 53.5153 18.5952C54.7604 18.7515 54.4865 18.0612 53.6647 17.6183C51.5282 16.7619 49.2144 16.5059 46.9539 16.8759Z" fill="#64EB81"/>
    </g>
    <defs>
        <clipPath id="clip0_327_330">
            <rect width="88" height="28" fill="white"/>
        </clipPath>
    </defs>
</svg>