<svg xmlns="http://www.w3.org/2000/svg" width="16" height="16" viewBox="0 0 16 16" fill="none">
    <mask id="mask0_327_40" style="mask-type:alpha" maskUnits="userSpaceOnUse" x="0" y="0" width="16" height="16">
        <rect width="16" height="16" fill="#D9D9D9"/>
    </mask>
    <g mask="url(#mask0_327_40)">
        <path d="M5.26922 7.3811C5.47159 7.3811 5.6413 7.31265 5.77837 7.17575C5.91545 7.03887 5.98399 6.86924 5.98399 6.66689C5.98399 6.46452 5.91554 6.2948 5.77865 6.15772C5.64177 6.02064 5.47214 5.9521 5.26979 5.9521C5.06742 5.9521 4.8977 6.02055 4.76062 6.15745C4.62354 6.29434 4.555 6.46396 4.555 6.66632C4.555 6.86869 4.62345 7.03841 4.76034 7.17549C4.89724 7.31257 5.06687 7.3811 5.26922 7.3811ZM7.99965 7.3811C8.20202 7.3811 8.37174 7.31265 8.50882 7.17575C8.6459 7.03887 8.71444 6.86924 8.71444 6.66689C8.71444 6.46452 8.64599 6.2948 8.50909 6.15772C8.3722 6.02064 8.20258 5.9521 8.00022 5.9521C7.79785 5.9521 7.62813 6.02055 7.49105 6.15745C7.35398 6.29434 7.28544 6.46396 7.28544 6.66632C7.28544 6.86869 7.35389 7.03841 7.49079 7.17549C7.62768 7.31257 7.7973 7.3811 7.99965 7.3811ZM10.7301 7.3811C10.9325 7.3811 11.1022 7.31265 11.2393 7.17575C11.3763 7.03887 11.4449 6.86924 11.4449 6.66689C11.4449 6.46452 11.3764 6.2948 11.2395 6.15772C11.1026 6.02064 10.933 5.9521 10.7307 5.9521C10.5283 5.9521 10.3586 6.02055 10.2215 6.15745C10.0844 6.29434 10.0159 6.46396 10.0159 6.66632C10.0159 6.86869 10.0843 7.03841 10.2212 7.17549C10.3581 7.31257 10.5277 7.3811 10.7301 7.3811ZM1.19775 14.8021V2.71444C1.19775 2.29463 1.34559 1.93689 1.64125 1.64124C1.9369 1.34558 2.29463 1.19775 2.71444 1.19775H13.2854C13.7052 1.19775 14.063 1.34558 14.3586 1.64124C14.6543 1.93689 14.8021 2.29463 14.8021 2.71444V10.6188C14.8021 11.0386 14.6543 11.3963 14.3586 11.692C14.063 11.9876 13.7052 12.1355 13.2854 12.1355H3.86442L1.19775 14.8021ZM3.29775 10.6188H13.2854V2.71444H2.71444V11.1894L3.29775 10.6188Z" fill="#2B420E"/>
    </g>
</svg>