<svg xmlns="http://www.w3.org/2000/svg" width="167" height="48" viewBox="0 0 167 48" fill="none">
    <path d="M54.3076 9.03629V3.31641H83.0858V9.03629H71.9774V42.8934H65.5311V9.03629H54.3076Z" fill="black"/>
    <path d="M100.713 37.6935L102.325 37.5202L102.44 42.2001C98.0657 43.086 94.1903 43.5289 90.8136 43.5289C86.5544 43.5289 83.4848 42.3541 81.6046 40.0046C79.7628 37.655 78.8419 33.8995 78.8419 28.7381C78.8419 18.4924 83.0051 13.3695 91.3316 13.3695C99.3895 13.3695 103.418 17.7798 103.418 26.6004L103.016 31.107H85.1731C85.2115 33.4951 85.7295 35.2476 86.7271 36.3646C87.7248 37.4816 89.5857 38.0401 92.3101 38.0401C95.0344 38.0401 97.8355 37.9246 100.713 37.6935ZM97.2599 26.2537C97.2599 23.4034 96.7995 21.4197 95.8786 20.3027C94.996 19.1472 93.4804 18.5694 91.3316 18.5694C89.1828 18.5694 87.6096 19.1665 86.612 20.3605C85.6527 21.5546 85.1539 23.519 85.1155 26.2537H97.2599Z" fill="black"/>
    <path d="M106.573 42.8934V14.0051H112.789V17.4717C116.051 15.3532 119.312 13.9858 122.574 13.3695V19.6672C119.274 20.322 116.454 21.1694 114.113 22.2094L112.847 22.7293V42.8934H106.573Z" fill="black"/>
    <path d="M124.492 42.8934V14.0051H130.708V17.4717C133.97 15.3532 137.231 13.9858 140.493 13.3695V19.6672C137.193 20.322 134.373 21.1694 132.032 22.2094L130.766 22.7293V42.8934H124.492Z" fill="black"/>
    <path d="M163.707 22.9027V36.0757C163.745 36.9231 163.956 37.5587 164.34 37.9824C164.762 38.3676 165.395 38.6179 166.239 38.7335L166.067 43.5289C162.767 43.5289 160.215 42.8164 158.412 41.3912C155.342 42.8164 152.253 43.5289 149.145 43.5289C143.428 43.5289 140.569 40.4668 140.569 34.3424C140.569 31.4151 141.337 29.2966 142.871 27.987C144.445 26.6774 146.843 25.8878 150.066 25.6182L157.491 24.9826V22.9027C157.491 21.362 157.145 20.2835 156.455 19.6672C155.802 19.0509 154.824 18.7428 153.519 18.7428C151.064 18.7428 147.994 18.8968 144.31 19.205L142.469 19.3205L142.238 14.8717C146.421 13.8703 150.258 13.3695 153.75 13.3695C157.28 13.3695 159.812 14.1399 161.347 15.6806C162.92 17.1828 163.707 19.5902 163.707 22.9027ZM150.814 30.067C148.167 30.2981 146.843 31.7425 146.843 34.4002C146.843 37.0579 148.013 38.3868 150.354 38.3868C152.272 38.3868 154.306 38.0787 156.455 37.4624L157.491 37.1157V29.4314L150.814 30.067Z" fill="black"/>
    <path fill-rule="evenodd" clip-rule="evenodd" d="M36.896 0.000244141C41.9044 0.000244141 46.0831 3.55285 47.0495 8.27558C47.1876 8.95025 47.2601 9.64881 47.2601 10.3643V36.8963C47.2601 42.6202 42.6199 47.2603 36.896 47.2603H10.3641C9.23087 47.2603 8.14017 47.0785 7.11954 46.7423C2.98476 45.3806 0 41.487 0 36.8963V10.3643C0 4.64039 4.64014 0.000244141 10.3641 0.000244141H36.896ZM32.6924 3.31674H36.896C40.3307 3.31674 43.1916 5.77383 43.8167 9.02617C41.822 9.25217 39.5421 9.04274 37.1345 8.01093C35.0009 7.09652 33.5857 5.40241 32.6924 3.31674ZM22.852 3.31674H29.1512C30.1977 6.46722 32.2027 9.50556 35.8281 11.0593C38.7362 12.3056 41.4981 12.5947 43.9436 12.3519V15.7406C40.6232 16.7917 37.3146 17.2171 34.6671 16.4422C33.3521 16.0574 31.8433 15.0355 30.2196 13.428C28.6181 11.8425 27.02 9.8033 25.5109 7.57431C24.5731 6.1891 23.6801 4.74617 22.852 3.31674ZM19.043 3.31674H14.6545C14.8545 7.06963 13.9702 11.6536 10.6808 16.2975C8.50154 19.3742 5.92445 21.0664 3.3165 21.8222V28.4337C4.88796 27.4793 6.73795 26.176 8.90391 24.4162C14.0216 20.258 18.0525 18.6036 21.1089 18.301C24.1478 18.0001 26.308 19.0542 27.2596 20.3865C28.2585 21.785 28.8233 23.6592 29.0358 25.636C29.251 27.6367 29.1198 29.8681 28.6153 32.0827C27.6121 36.4853 25.0657 41.0681 20.478 43.5384C20.2282 43.6729 19.9761 43.8081 19.722 43.9438H24.8769C26.8931 41.3844 28.5064 38.8415 29.085 36.8485C29.7381 34.5989 30.0062 32.214 30.2569 29.9842L30.257 29.9837L30.257 29.9832C30.3471 29.1824 30.4349 28.4014 30.5374 27.654C30.7152 26.3588 30.9605 24.9866 31.4876 23.9972C31.7665 23.4735 32.2096 22.8906 32.9229 22.554C33.6737 22.1998 34.4549 22.2432 35.1402 22.4717C37.0612 23.112 39.6149 23.2447 43.9436 22.1604V19.2021C40.6056 20.1427 36.9659 20.5707 33.7355 19.6252C31.651 19.0151 29.6723 17.553 27.8863 15.7849C26.078 13.9947 24.3441 11.7665 22.7646 9.4336C21.4136 7.43808 20.156 5.33646 19.043 3.31674ZM43.9436 25.5713C39.8198 26.5152 36.8545 26.4758 34.3465 25.6999C34.1611 26.1339 33.9881 26.9034 33.8231 28.105C33.7412 28.7019 33.6651 29.3805 33.5829 30.1143L33.5828 30.1148C33.3265 32.4016 33.0102 35.2236 32.27 37.7732C31.7026 39.7274 30.4757 41.8742 29.017 43.9438H32.3537C32.9691 42.4134 33.536 40.9558 33.9811 39.7306C34.4594 38.4141 34.7591 37.4673 34.8554 36.9855C35.0385 36.0704 35.3871 35.086 36.2048 34.388C37.0554 33.6619 38.1002 33.5061 39.079 33.5559C40.0428 33.6049 41.1729 33.8644 42.4478 34.2301C42.9114 34.3631 43.4096 34.5148 43.9436 34.6833V25.5713ZM43.8357 38.1313C42.97 37.8502 42.2083 37.6116 41.5334 37.4181C40.3016 37.0647 39.4755 36.8968 38.9106 36.8681C38.5458 36.8495 38.3982 36.8944 38.3558 36.9134C38.3321 36.9414 38.2143 37.102 38.1075 37.6359C37.9552 38.3978 37.5691 39.567 37.0982 40.8631C36.7602 41.7935 36.3585 42.8424 35.9239 43.9438H36.896C40.3669 43.9438 43.2518 41.4347 43.8357 38.1313ZM12.5661 43.9438C14.738 42.8237 16.9302 41.6821 18.9056 40.6183C22.4019 38.7357 24.5192 35.1309 25.3816 31.3459C25.8098 29.4668 25.9119 27.6044 25.7383 25.9906C25.5623 24.3529 25.1165 23.0921 24.5609 22.3141C24.4761 22.1955 23.6306 21.384 21.4357 21.6013C19.2583 21.8169 15.827 23.0644 10.9953 26.9902C7.97068 29.4476 5.43952 31.1315 3.3165 32.2445V35.9848C3.83985 35.5059 4.43082 35.1058 4.97695 34.7645C5.53335 34.4168 6.13961 34.0748 6.7354 33.7407L6.88306 33.6579C7.43964 33.3459 7.99203 33.0363 8.54056 32.7078C9.74053 31.989 10.8195 31.2384 11.6492 30.3649C13.0856 28.8527 15.159 27.0477 17.1082 25.8157C18.0698 25.2078 19.1083 24.6702 20.0882 24.4233C21.0078 24.1917 22.4337 24.0974 23.4272 25.2332C24.3727 26.3141 24.7646 27.9352 24.0758 30.0392C23.4217 32.0374 21.7788 34.5608 18.6033 37.8422C15.307 41.2484 12.0106 42.9547 9.23138 43.4984C8.91794 43.5597 8.6096 43.6065 8.30746 43.639C8.95808 43.8372 9.64862 43.9438 10.3641 43.9438H12.5661ZM3.3165 18.313C4.92332 17.6466 6.5241 16.4281 7.9745 14.3805C10.8384 10.3374 11.5304 6.41689 11.3334 3.31674H10.3641C6.47179 3.31674 3.3165 6.47204 3.3165 10.3643V18.313ZM38.3526 36.9149C38.3448 36.9186 38.3416 36.921 38.342 36.9213C38.3422 36.9215 38.344 36.9207 38.347 36.9188L38.349 36.9174L38.3526 36.9149ZM18.8802 28.6191C17.2101 29.6747 15.3449 31.2898 14.0538 32.649C12.9145 33.8484 11.5321 34.7819 10.2447 35.553C9.65303 35.9073 9.05978 36.2398 8.50988 36.548L8.35758 36.6333C7.75498 36.9713 7.21466 37.277 6.7346 37.577C5.69947 38.2239 5.26672 38.6588 5.13109 38.9373C5.09221 39.0171 5.08758 39.0629 5.09957 39.1326C5.11662 39.2318 5.18801 39.461 5.47201 39.8396L5.49962 39.8765L5.52517 39.9148C5.52676 39.917 5.5641 39.9684 5.68278 40.041C5.80536 40.116 5.99513 40.2009 6.26463 40.2672C6.80625 40.4005 7.59467 40.4392 8.59461 40.2436C10.583 39.8546 13.2979 38.5554 16.22 35.5358C19.2629 32.3915 20.5005 30.3008 20.9239 29.0074C21.176 28.2374 21.1244 27.8203 21.0438 27.6072C21.0034 27.6147 20.9552 27.625 20.8984 27.6393C20.4195 27.76 19.7282 28.0831 18.8802 28.6191ZM21.2222 27.5916C21.2215 27.5925 21.2116 27.5926 21.1947 27.5893C21.2145 27.5891 21.2229 27.5908 21.2222 27.5916Z" fill="#56704E"/>
</svg>