<svg xmlns="http://www.w3.org/2000/svg" width="167" height="48" viewBox="0 0 167 48" fill="none">
    <path d="M54.3076 9.03605V3.31616H83.0858V9.03605H71.9774V42.8931H65.5311V9.03605H54.3076Z" fill="black"/>
    <path d="M100.713 37.6932L102.325 37.5199L102.44 42.1998C98.0657 43.0857 94.1903 43.5287 90.8136 43.5287C86.5544 43.5287 83.4848 42.3539 81.6046 40.0043C79.7628 37.6547 78.8419 33.8992 78.8419 28.7379C78.8419 18.4922 83.0051 13.3693 91.3316 13.3693C99.3895 13.3693 103.418 17.7796 103.418 26.6001L103.016 31.1067H85.1731C85.2115 33.4948 85.7295 35.2474 86.7271 36.3644C87.7248 37.4814 89.5857 38.0399 92.3101 38.0399C95.0344 38.0399 97.8355 37.9244 100.713 37.6932ZM97.2599 26.2535C97.2599 23.4032 96.7995 21.4195 95.8786 20.3025C94.996 19.147 93.4804 18.5692 91.3316 18.5692C89.1828 18.5692 87.6096 19.1662 86.612 20.3603C85.6527 21.5543 85.1539 23.5187 85.1155 26.2535H97.2599Z" fill="black"/>
    <path d="M106.573 42.8931V14.0048H112.789V17.4714C116.051 15.353 119.312 13.9856 122.574 13.3693V19.6669C119.274 20.3217 116.454 21.1691 114.113 22.2091L112.847 22.7291V42.8931H106.573Z" fill="black"/>
    <path d="M124.492 42.8931V14.0048H130.708V17.4714C133.97 15.353 137.231 13.9856 140.493 13.3693V19.6669C137.193 20.3217 134.373 21.1691 132.032 22.2091L130.766 22.7291V42.8931H124.492Z" fill="black"/>
    <path d="M163.707 22.9024V36.0755C163.745 36.9229 163.956 37.5584 164.34 37.9821C164.762 38.3673 165.395 38.6177 166.239 38.7332L166.067 43.5287C162.767 43.5287 160.215 42.8161 158.412 41.391C155.342 42.8161 152.253 43.5287 149.145 43.5287C143.428 43.5287 140.569 40.4665 140.569 34.3422C140.569 31.4149 141.337 29.2964 142.871 27.9868C144.445 26.6772 146.843 25.8876 150.066 25.6179L157.491 24.9824V22.9024C157.491 21.3617 157.145 20.2832 156.455 19.6669C155.802 19.0507 154.824 18.7425 153.519 18.7425C151.064 18.7425 147.994 18.8966 144.31 19.2047L142.469 19.3203L142.238 14.8715C146.421 13.87 150.258 13.3693 153.75 13.3693C157.28 13.3693 159.812 14.1396 161.347 15.6804C162.92 17.1826 163.707 19.5899 163.707 22.9024ZM150.814 30.0667C148.167 30.2978 146.843 31.7423 146.843 34.4C146.843 37.0577 148.013 38.3866 150.354 38.3866C152.272 38.3866 154.306 38.0784 156.455 37.4621L157.491 37.1155V29.4312L150.814 30.0667Z" fill="black"/>
    <path fill-rule="evenodd" clip-rule="evenodd" d="M36.896 0C41.9044 0 46.0831 3.55261 47.0495 8.27533C47.1876 8.95001 47.2601 9.64856 47.2601 10.3641V36.896C47.2601 42.6199 42.6199 47.2601 36.896 47.2601H10.3641C9.23087 47.2601 8.14017 47.0782 7.11954 46.7421C2.98476 45.3804 0 41.4868 0 36.896V10.3641C0 4.64014 4.64014 0 10.3641 0H36.896ZM32.6924 3.3165H36.896C40.3307 3.3165 43.1916 5.77359 43.8167 9.02593C41.822 9.25192 39.5421 9.0425 37.1345 8.01069C35.0009 7.09628 33.5857 5.40217 32.6924 3.3165ZM22.852 3.3165H29.1512C30.1977 6.46697 32.2027 9.50531 35.8281 11.059C38.7362 12.3054 41.4981 12.5945 43.9436 12.3516V15.7404C40.6232 16.7915 37.3146 17.2168 34.6671 16.442C33.3521 16.0571 31.8433 15.0352 30.2196 13.4278C28.6181 11.8423 27.02 9.80305 25.5109 7.57406C24.5731 6.18886 23.6801 4.74593 22.852 3.3165ZM19.043 3.3165H14.6545C14.8545 7.06939 13.9702 11.6534 10.6808 16.2973C8.50154 19.3739 5.92445 21.0662 3.3165 21.8219V28.4335C4.88796 27.4791 6.73795 26.1758 8.90391 24.4159C14.0216 20.2578 18.0525 18.6033 21.1089 18.3007C24.1478 17.9998 26.308 19.0539 27.2596 20.3862C28.2585 21.7847 28.8233 23.659 29.0358 25.6358C29.251 27.6365 29.1198 29.8679 28.6153 32.0825C27.6121 36.4851 25.0657 41.0679 20.478 43.5382C20.2282 43.6727 19.9761 43.8079 19.722 43.9436H24.8769C26.8931 41.3842 28.5064 38.8412 29.085 36.8482C29.7381 34.5987 30.0062 32.2137 30.2569 29.9839L30.257 29.9835L30.257 29.983C30.3471 29.1821 30.4349 28.4011 30.5374 27.6538C30.7152 26.3586 30.9605 24.9864 31.4876 23.9969C31.7665 23.4733 32.2096 22.8903 32.9229 22.5538C33.6737 22.1995 34.4549 22.243 35.1402 22.4714C37.0612 23.1118 39.6149 23.2444 43.9436 22.1602V19.2019C40.6056 20.1425 36.9659 20.5704 33.7355 19.6249C31.651 19.0148 29.6723 17.5528 27.8863 15.7846C26.078 13.9945 24.3441 11.7663 22.7646 9.43336C21.4136 7.43784 20.156 5.33621 19.043 3.3165ZM43.9436 25.5711C39.8198 26.515 36.8545 26.4756 34.3465 25.6997C34.1611 26.1336 33.9881 26.9032 33.8231 28.1048C33.7412 28.7016 33.6651 29.3803 33.5829 30.114L33.5828 30.1146C33.3265 32.4014 33.0102 35.2234 32.27 37.7729C31.7026 39.7272 30.4757 41.874 29.017 43.9436H32.3537C32.9691 42.4132 33.536 40.9555 33.9811 39.7303C34.4594 38.4138 34.7591 37.4671 34.8554 36.9852C35.0385 36.0702 35.3871 35.0858 36.2048 34.3878C37.0554 33.6616 38.1002 33.5058 39.079 33.5556C40.0428 33.6046 41.1729 33.8642 42.4478 34.2299C42.9114 34.3628 43.4096 34.5146 43.9436 34.683V25.5711ZM43.8357 38.1311C42.97 37.8499 42.2083 37.6114 41.5334 37.4178C40.3016 37.0645 39.4755 36.8966 38.9106 36.8678C38.5458 36.8493 38.3982 36.8942 38.3558 36.9131C38.3321 36.9412 38.2143 37.1017 38.1075 37.6357C37.9552 38.3975 37.5691 39.5667 37.0982 40.8628C36.7602 41.7933 36.3585 42.8422 35.9239 43.9436H36.896C40.3669 43.9436 43.2518 41.4344 43.8357 38.1311ZM12.5661 43.9436C14.738 42.8235 16.9302 41.6818 18.9056 40.6181C22.4019 38.7355 24.5192 35.1307 25.3816 31.3457C25.8098 29.4665 25.9119 27.6041 25.7383 25.9903C25.5623 24.3527 25.1165 23.0918 24.5609 22.3139C24.4761 22.1952 23.6306 21.3838 21.4357 21.6011C19.2583 21.8167 15.827 23.0641 10.9953 26.9899C7.97068 29.4474 5.43952 31.1312 3.3165 32.2443V35.9846C3.83985 35.5056 4.43082 35.1056 4.97695 34.7643C5.53335 34.4166 6.13961 34.0745 6.7354 33.7404L6.88306 33.6576C7.43964 33.3457 7.99203 33.0361 8.54056 32.7075C9.74053 31.9888 10.8195 31.2381 11.6492 30.3647C13.0856 28.8525 15.159 27.0475 17.1082 25.8154C18.0698 25.2076 19.1083 24.6699 20.0882 24.4231C21.0078 24.1914 22.4337 24.0972 23.4272 25.233C24.3727 26.3138 24.7646 27.9349 24.0758 30.0389C23.4217 32.0372 21.7788 34.5606 18.6033 37.8419C15.307 41.2481 12.0106 42.9544 9.23138 43.4982C8.91794 43.5595 8.6096 43.6062 8.30746 43.6388C8.95808 43.837 9.64862 43.9436 10.3641 43.9436H12.5661ZM3.3165 18.3128C4.92332 17.6464 6.5241 16.4279 7.9745 14.3803C10.8384 10.3371 11.5304 6.41665 11.3334 3.3165H10.3641C6.47179 3.3165 3.3165 6.47179 3.3165 10.3641V18.3128ZM38.3526 36.9146C38.3448 36.9183 38.3416 36.9207 38.342 36.921C38.3422 36.9212 38.344 36.9205 38.347 36.9186L38.349 36.9172L38.3526 36.9146ZM18.8802 28.6188C17.2101 29.6744 15.3449 31.2896 14.0538 32.6488C12.9145 33.8482 11.5321 34.7816 10.2447 35.5527C9.65303 35.9071 9.05978 36.2396 8.50988 36.5477L8.35758 36.6331C7.75498 36.971 7.21466 37.2767 6.7346 37.5767C5.69947 38.2236 5.26672 38.6585 5.13109 38.937C5.09221 39.0169 5.08758 39.0626 5.09957 39.1324C5.11662 39.2316 5.18801 39.4607 5.47201 39.8394L5.49962 39.8762L5.52517 39.9145C5.52676 39.9167 5.5641 39.9682 5.68278 40.0408C5.80536 40.1158 5.99513 40.2007 6.26463 40.267C6.80625 40.4002 7.59467 40.439 8.59461 40.2434C10.583 39.8544 13.2979 38.5551 16.22 35.5356C19.2629 32.3913 20.5005 30.3005 20.9239 29.0072C21.176 28.2371 21.1244 27.8201 21.0438 27.607C21.0034 27.6144 20.9552 27.6248 20.8984 27.6391C20.4195 27.7597 19.7282 28.0828 18.8802 28.6188ZM21.2222 27.5914C21.2215 27.5922 21.2116 27.5924 21.1947 27.5891C21.2145 27.5889 21.2229 27.5905 21.2222 27.5914Z" fill="#56704E"/>
</svg>