<svg xmlns="http://www.w3.org/2000/svg" width="231" height="42" viewBox="0 0 231 42" fill="none">
    <path d="M73.7854 37.4407C70.4673 37.4407 67.5343 36.789 64.9864 35.4854C62.4386 34.1522 60.4684 32.2709 59.076 29.8416C57.6835 27.4122 56.9873 24.5533 56.9873 21.2648C56.9873 17.9762 57.6835 15.1173 59.076 12.6879C60.4684 10.2289 62.4386 8.34768 64.9864 7.04412C67.5343 5.71093 70.4673 5.04434 73.7854 5.04434C76.037 5.04434 78.022 5.28135 79.7403 5.75537C81.4883 6.19976 83.0881 6.9108 84.5398 7.88847V14.3322C83.2362 13.2656 81.7401 12.4954 80.0514 12.0213C78.3923 11.5177 76.4963 11.2659 74.3632 11.2659C72.3782 11.2659 70.5858 11.6806 68.986 12.5102C67.4158 13.3101 66.1715 14.4655 65.2531 15.9765C64.3346 17.4874 63.8754 19.2502 63.8754 21.2648C63.8754 23.309 64.2902 25.1014 65.1197 26.6419C65.9789 28.1529 67.1788 29.3231 68.7193 30.1527C70.2599 30.9822 72.0375 31.397 74.0521 31.397C75.8889 31.397 77.4887 31.0711 78.8515 30.4193V24.42H73.8299V19.4427H85.3842V34.4189C82.4511 36.4335 78.5849 37.4407 73.7854 37.4407Z" fill="#196D3A"/>
    <path d="M86.9441 15.4432H93.4322V18.5095C94.2914 17.4726 95.4913 16.6875 97.0318 16.1542C98.5724 15.5913 100.32 15.3099 102.276 15.3099V20.4204C100.231 20.4204 98.4243 20.7315 96.8541 21.3536C95.3135 21.9758 94.2469 22.9238 93.6544 24.1978V36.7742H86.9441V15.4432Z" fill="#196D3A"/>
    <path d="M115.171 37.4407C111.083 37.4407 107.868 36.4631 105.528 34.5077C103.187 32.5228 102.017 29.7527 102.017 26.1975C102.017 22.672 103.054 19.8871 105.128 17.8429C107.231 15.7987 110.224 14.7766 114.105 14.7766C116.652 14.7766 118.815 15.2506 120.593 16.1987C122.37 17.1467 123.718 18.4651 124.637 20.1538C125.555 21.8128 126.014 23.6941 126.014 25.7976V28.5084H108.416C108.89 31.234 111.438 32.5968 116.06 32.5968C117.423 32.5968 118.83 32.4783 120.282 32.2413C121.733 32.0043 122.992 31.6784 124.059 31.2637V35.9742C123.022 36.4186 121.689 36.7742 120.059 37.0408C118.43 37.3074 116.801 37.4407 115.171 37.4407ZM119.66 24.1533C119.571 22.7313 119.037 21.6351 118.06 20.8648C117.082 20.0649 115.734 19.6649 114.016 19.6649C112.327 19.6649 110.994 20.0649 110.016 20.8648C109.038 21.6647 108.505 22.7609 108.416 24.1533H119.66Z" fill="#196D3A"/>
    <path d="M139.769 37.4407C135.681 37.4407 132.466 36.4631 130.126 34.5077C127.785 32.5228 126.615 29.7527 126.615 26.1975C126.615 22.672 127.652 19.8871 129.726 17.8429C131.829 15.7987 134.822 14.7766 138.703 14.7766C141.25 14.7766 143.413 15.2506 145.191 16.1987C146.968 17.1467 148.316 18.4651 149.235 20.1538C150.153 21.8128 150.612 23.6941 150.612 25.7976V28.5084H133.014C133.488 31.234 136.036 32.5968 140.658 32.5968C142.021 32.5968 143.428 32.4783 144.88 32.2413C146.331 32.0043 147.59 31.6784 148.657 31.2637V35.9742C147.62 36.4186 146.287 36.7742 144.657 37.0408C143.028 37.3074 141.399 37.4407 139.769 37.4407ZM144.257 24.1533C144.169 22.7313 143.635 21.6351 142.658 20.8648C141.68 20.0649 140.332 19.6649 138.614 19.6649C136.925 19.6649 135.592 20.0649 134.614 20.8648C133.636 21.6647 133.103 22.7609 133.014 24.1533H144.257Z" fill="#196D3A"/>
    <path d="M152.102 15.4432H158.59V18.0651C159.568 16.9689 160.723 16.1542 162.056 15.6209C163.419 15.058 164.841 14.7766 166.322 14.7766C169.226 14.7766 171.389 15.5617 172.811 17.1319C174.262 18.6725 174.988 20.7611 174.988 23.3979V36.7742H168.278V24.1533C168.278 21.3981 167.004 20.0205 164.456 20.0205C163.33 20.0205 162.278 20.3019 161.301 20.8648C160.323 21.3981 159.494 22.198 158.812 23.2645V36.7742H152.102V15.4432Z" fill="#196D3A"/>
    <path d="M180.909 12.1547C179.872 12.1547 178.998 11.814 178.287 11.1326C177.576 10.4511 177.22 9.59198 177.22 8.55506C177.22 7.54776 177.576 6.70341 178.287 6.02201C178.998 5.31097 179.872 4.95546 180.909 4.95546C181.946 4.95546 182.82 5.31097 183.531 6.02201C184.242 6.70341 184.597 7.54776 184.597 8.55506C184.597 9.59198 184.242 10.4511 183.531 11.1326C182.82 11.814 181.946 12.1547 180.909 12.1547ZM177.532 15.4432H184.286V36.7742H177.532V15.4432Z" fill="#196D3A"/>
    <path d="M195.731 37.4407C194.131 37.4407 192.413 37.263 190.576 36.9075C188.769 36.5816 187.347 36.1076 186.31 35.4854V30.2415C187.495 30.9526 188.917 31.5303 190.576 31.9747C192.235 32.4191 193.776 32.6413 195.198 32.6413C196.412 32.6413 197.301 32.5376 197.864 32.3302C198.427 32.1228 198.708 31.7377 198.708 31.1748C198.708 30.7304 198.545 30.3749 198.22 30.1082C197.894 29.812 197.39 29.5601 196.709 29.3528C196.057 29.1157 194.961 28.775 193.42 28.3306C191.613 27.7974 190.191 27.2641 189.154 26.7308C188.147 26.1679 187.376 25.4717 186.843 24.6422C186.339 23.8126 186.088 22.7461 186.088 21.4425C186.088 19.2205 186.962 17.5615 188.709 16.4653C190.487 15.3395 192.887 14.7766 195.909 14.7766C197.39 14.7766 198.916 14.9395 200.486 15.2654C202.086 15.5617 203.315 15.9616 204.174 16.4653V21.5758C203.315 21.0129 202.189 20.5537 200.797 20.1982C199.434 19.8427 198.101 19.6649 196.798 19.6649C195.583 19.6649 194.635 19.7834 193.953 20.0205C193.302 20.2575 192.976 20.7019 192.976 21.3536C192.976 21.9165 193.287 22.3461 193.909 22.6424C194.561 22.9387 195.761 23.309 197.509 23.7534L198.397 23.9756C200.264 24.4792 201.715 25.0421 202.752 25.6643C203.789 26.2568 204.515 26.9826 204.93 27.8418C205.374 28.6713 205.597 29.7231 205.597 30.997C205.597 32.9524 204.752 34.5225 203.063 35.7076C201.375 36.863 198.931 37.4407 195.731 37.4407Z" fill="#196D3A"/>
    <path d="M207.148 3.93335H213.858V17.8874C214.865 16.8504 216.006 16.0802 217.28 15.5765C218.554 15.0432 219.917 14.7766 221.368 14.7766C224.272 14.7766 226.434 15.5617 227.857 17.1319C229.308 18.6725 230.034 20.7611 230.034 23.3979V36.7742H223.324V24.1533C223.324 21.3981 222.05 20.0205 219.502 20.0205C218.376 20.0205 217.324 20.3019 216.347 20.8648C215.369 21.3981 214.54 22.198 213.858 23.2645V36.7742H207.148V3.93335Z" fill="#196D3A"/>
    <path fill-rule="evenodd" clip-rule="evenodd" d="M34.0704 10.2213C34.0704 15.8663 29.4943 20.4424 23.8493 20.4424C18.2044 20.4424 13.6283 15.8663 13.6283 10.2213C13.6283 4.57638 18.2044 0.000244141 23.8493 0.000244141C29.4943 0.000244141 34.0704 4.57638 34.0704 10.2213ZM0.0742906 19.6998C11.2099 18.9492 20.915 27.2864 21.8189 38.4456C21.9126 39.6019 21.9081 40.7436 21.8125 41.8624C10.6768 42.613 0.971787 34.2758 0.0678259 23.1166C-0.0258465 21.9602 -0.0213675 20.8186 0.0742906 19.6998ZM29.0174 41.4717C40.1765 40.5677 48.5137 30.8627 47.7631 19.7271C46.6444 19.6315 45.5027 19.627 44.3464 19.7207C33.1872 20.6246 24.85 30.3297 25.6006 41.4652C26.7193 41.5609 27.861 41.5654 29.0174 41.4717Z" fill="#196D3A"/>
</svg>