<svg width="262" height="61" viewBox="0 0 262 61" fill="none" xmlns="http://www.w3.org/2000/svg">
<path d="M77.3287 16.054C79.8161 16.054 81.9692 16.4685 83.788 17.2977C85.6335 18.1268 87.051 19.3037 88.0407 20.8282C89.0303 22.3528 89.5251 24.1582 89.5251 26.2444C89.5251 28.3039 89.0303 30.1093 88.0407 31.6606C87.051 33.1851 85.6335 34.362 83.788 35.1911C81.9692 35.9935 79.8161 36.3947 77.3287 36.3947H71.6718V44.1378H65.1724V16.054H77.3287ZM76.9676 31.0989C78.9201 31.0989 80.4045 30.6843 81.4209 29.8552C82.4373 28.9993 82.9454 27.7957 82.9454 26.2444C82.9454 24.6663 82.4373 23.4627 81.4209 22.6336C80.4045 21.7777 78.9201 21.3498 76.9676 21.3498H71.6718V31.0989H76.9676Z" fill="#180B3D"/>
<path d="M97.6957 25.4019C98.4446 24.3588 99.4476 23.5697 100.705 23.0348C101.989 22.4999 103.46 22.2324 105.118 22.2324V28.0097C104.422 27.9562 103.954 27.9294 103.714 27.9294C101.922 27.9294 100.517 28.4376 99.5011 29.454C98.4848 30.4436 97.9766 31.9414 97.9766 33.9474V44.1378H91.7179V22.5534H97.6957V25.4019Z" fill="#180B3D"/>
<path d="M116.908 44.4588C114.635 44.4588 112.589 43.9907 110.77 43.0546C108.978 42.0917 107.574 40.7678 106.557 39.0827C105.541 37.3977 105.033 35.4853 105.033 33.3456C105.033 31.2059 105.541 29.2935 106.557 27.6085C107.574 25.9234 108.978 24.6128 110.77 23.6767C112.589 22.7138 114.635 22.2324 116.908 22.2324C119.182 22.2324 121.214 22.7138 123.006 23.6767C124.798 24.6128 126.203 25.9234 127.219 27.6085C128.235 29.2935 128.743 31.2059 128.743 33.3456C128.743 35.4853 128.235 37.3977 127.219 39.0827C126.203 40.7678 124.798 42.0917 123.006 43.0546C121.214 43.9907 119.182 44.4588 116.908 44.4588ZM116.908 39.3234C118.513 39.3234 119.823 38.7885 120.84 37.7187C121.883 36.622 122.405 35.1644 122.405 33.3456C122.405 31.5268 121.883 30.0825 120.84 29.0127C119.823 27.916 118.513 27.3677 116.908 27.3677C115.303 27.3677 113.979 27.916 112.936 29.0127C111.893 30.0825 111.372 31.5268 111.372 33.3456C111.372 35.1644 111.893 36.622 112.936 37.7187C113.979 38.7885 115.303 39.3234 116.908 39.3234Z" fill="#180B3D"/>
<path d="M157.119 16.054V44.1378H151.783L137.781 27.0869V44.1378H131.362V16.054H136.738L150.7 33.1049V16.054H157.119Z" fill="#180B3D"/>
<path d="M170.022 22.2324C173.366 22.2324 175.933 23.0348 177.725 24.6396C179.517 26.2176 180.413 28.6115 180.413 31.821V44.1378H174.556V41.4498C173.379 43.4558 171.186 44.4588 167.976 44.4588C166.318 44.4588 164.874 44.1779 163.643 43.6163C162.44 43.0546 161.517 42.2789 160.875 41.2893C160.233 40.2997 159.912 39.1763 159.912 37.9193C159.912 35.9133 160.661 34.3352 162.159 33.1851C163.683 32.035 166.024 31.46 169.18 31.46H174.155C174.155 30.0959 173.74 29.0528 172.911 28.3306C172.082 27.5817 170.838 27.2073 169.18 27.2073C168.03 27.2073 166.893 27.3945 165.77 27.7689C164.673 28.1166 163.737 28.5981 162.961 29.2133L160.715 24.8402C161.891 24.0111 163.296 23.3691 164.927 22.9144C166.585 22.4598 168.284 22.2324 170.022 22.2324ZM169.541 40.2462C170.611 40.2462 171.56 40.0055 172.389 39.524C173.219 39.0159 173.807 38.2803 174.155 37.3175V35.1109H169.862C167.294 35.1109 166.01 35.9534 166.01 37.6384C166.01 38.4408 166.318 39.0827 166.933 39.5642C167.575 40.0189 168.444 40.2462 169.541 40.2462Z" fill="#180B3D"/>
<path d="M197.993 43.0947C197.378 43.5494 196.616 43.8971 195.707 44.1378C194.824 44.3518 193.888 44.4588 192.898 44.4588C190.33 44.4588 188.338 43.8035 186.92 42.4929C185.529 41.1823 184.834 39.2566 184.834 36.7157V27.8492H181.504V23.0348H184.834V17.7791H191.093V23.0348H196.469V27.8492H191.093V36.6354C191.093 37.5448 191.32 38.2536 191.775 38.7618C192.256 39.2432 192.925 39.4839 193.781 39.4839C194.77 39.4839 195.613 39.2165 196.308 38.6815L197.993 43.0947Z" fill="#180B3D"/>
<path d="M221.246 22.5534V44.1378H215.308V41.5702C214.479 42.5063 213.489 43.2284 212.339 43.7366C211.189 44.2181 209.945 44.4588 208.608 44.4588C205.773 44.4588 203.526 43.643 201.868 42.0115C200.209 40.3799 199.38 37.9594 199.38 34.7498V22.5534H205.639V33.827C205.639 37.3041 207.097 39.0426 210.012 39.0426C211.51 39.0426 212.713 38.5612 213.623 37.5983C214.532 36.6087 214.987 35.151 214.987 33.2252V22.5534H221.246Z" fill="#180B3D"/>
<path d="M231.016 25.4019C231.765 24.3588 232.768 23.5697 234.025 23.0348C235.309 22.4999 236.78 22.2324 238.438 22.2324V28.0097C237.743 27.9562 237.274 27.9294 237.034 27.9294C235.242 27.9294 233.837 28.4376 232.821 29.454C231.805 30.4436 231.297 31.9414 231.297 33.9474V44.1378H225.038V22.5534H231.016V25.4019Z" fill="#180B3D"/>
<path d="M261.101 33.4258C261.101 33.5061 261.06 34.0678 260.98 35.1109H244.651C244.946 36.4482 245.641 37.5047 246.738 38.2803C247.834 39.056 249.198 39.4438 250.83 39.4438C251.953 39.4438 252.943 39.2833 253.799 38.9624C254.681 38.6147 255.497 38.0797 256.246 37.3576L259.576 40.9684C257.543 43.2953 254.574 44.4588 250.669 44.4588C248.235 44.4588 246.082 43.9907 244.21 43.0546C242.338 42.0917 240.894 40.7678 239.877 39.0827C238.861 37.3977 238.353 35.4853 238.353 33.3456C238.353 31.2326 238.847 29.3336 239.837 27.6486C240.853 25.9368 242.231 24.6128 243.969 23.6767C245.735 22.7138 247.701 22.2324 249.867 22.2324C251.98 22.2324 253.892 22.6871 255.604 23.5965C257.316 24.5059 258.653 25.8164 259.616 27.5282C260.606 29.2133 261.101 31.1791 261.101 33.4258ZM249.907 26.9665C248.49 26.9665 247.299 27.3677 246.337 28.1701C245.374 28.9725 244.785 30.0691 244.571 31.46H255.203C254.989 30.0959 254.401 29.0127 253.438 28.2103C252.475 27.3811 251.298 26.9665 249.907 26.9665Z" fill="#180B3D"/>
<path fill-rule="evenodd" clip-rule="evenodd" d="M29.5294 0.413726C28.5758 -0.137909 27.4001 -0.137909 26.4465 0.413726C19.6732 4.33189 15.1049 11.6628 15.1049 20.0643C15.1049 21.2618 15.1977 22.4375 15.3764 23.5846C10.7137 22.0011 5.66509 22.5774 1.54146 24.9535C0.586928 25.5036 -0.000920543 26.5217 1.0821e-06 27.6234C0.0048612 33.4353 3.02406 39.0997 8.43126 42.2216C11.084 43.7531 13.9793 44.481 16.8353 44.4824C16.4008 45.7136 16.1644 47.0383 16.1644 48.4183C16.1644 54.948 21.4578 60.2414 27.9875 60.2414C34.5173 60.2414 39.8107 54.948 39.8107 48.4183C39.8107 47.0353 39.5732 45.7078 39.1369 44.4743C41.8225 44.3896 44.5276 43.6601 47.0187 42.2218C52.4259 39.1 55.4451 33.4356 55.45 27.6237C55.4509 26.522 54.8631 25.5038 53.9085 24.9538C49.9473 22.6712 45.1326 22.0496 40.6263 23.4078C40.7875 22.3167 40.871 21.2003 40.871 20.0643C40.871 11.6628 36.3028 4.33189 29.5294 0.413726ZM21.2618 20.0643C21.2618 14.6086 23.9034 9.76698 27.988 6.75328C32.0725 9.76698 34.7141 14.6086 34.7141 20.0643C34.7141 25.5201 32.0725 30.3617 27.988 33.3754C23.9034 30.3617 21.2618 25.5201 21.2618 20.0643ZM40.129 30.2884C42.9719 28.647 46.2568 28.4561 49.1263 29.4947C48.591 32.4991 46.7832 35.2484 43.9403 36.8898C41.0973 38.5312 37.8125 38.7221 34.9429 37.6835C35.4782 34.6791 37.286 31.9298 40.129 30.2884ZM6.32364 29.4945C9.19319 28.4559 12.4781 28.6468 15.321 30.2882C18.164 31.9296 19.9718 34.6789 20.5071 37.6833C17.6375 38.7219 14.3527 38.5309 11.5097 36.8896C8.66676 35.2482 6.85896 32.4989 6.32364 29.4945ZM22.3213 48.4183C22.3213 45.2889 24.8582 42.752 27.9875 42.752C31.1169 42.752 33.6538 45.2889 33.6538 48.4183C33.6538 51.5476 31.1169 54.0845 27.9875 54.0845C24.8582 54.0845 22.3213 51.5476 22.3213 48.4183Z" fill="#22B24B"/>
</svg>
