<svg xmlns="http://www.w3.org/2000/svg" width="175" height="49" viewBox="0 0 175 49" fill="none">
    <path d="M36.5915 7.57192C36.5915 11.7536 33.2015 15.1436 29.0198 15.1436C24.8381 15.1436 21.4481 11.7536 21.4481 7.57192C21.4481 3.3902 24.8381 0.000244141 29.0198 0.000244141C33.2015 0.000244141 36.5915 3.3902 36.5915 7.57192Z" fill="#34BC85"/>
    <path d="M24.9385 40.8995C11.1653 40.8995 0 29.7341 0 15.961V3.99055C13.7731 3.99055 24.9391 15.1559 24.9391 28.929L24.9385 40.8995Z" fill="#34BC85"/>
    <path d="M52.3712 11.9708C38.598 11.9708 27.4327 23.1361 27.4327 36.9092V48.8797C41.2058 48.8797 52.3712 37.7144 52.3712 23.9413V11.9708Z" fill="#34BC85"/>
    <path d="M98.4838 7.44033V37.4654H92.4616V17.9362L84.4177 37.4654H79.858L71.771 17.9362V37.4654H65.7488V7.44033H72.5883L82.1378 29.7656L91.6873 7.44033H98.4838Z" fill="#0F5156"/>
    <path d="M105.771 10.7956C104.71 10.7956 103.821 10.4658 103.104 9.8062C102.416 9.11795 102.072 8.27197 102.072 7.26827C102.072 6.26456 102.416 5.43292 103.104 4.77335C103.821 4.08509 104.71 3.74097 105.771 3.74097C106.832 3.74097 107.707 4.08509 108.395 4.77335C109.112 5.43292 109.471 6.26456 109.471 7.26827C109.471 8.27197 109.112 9.11795 108.395 9.8062C107.707 10.4658 106.832 10.7956 105.771 10.7956ZM108.739 13.6346V37.4654H102.717V13.6346H108.739Z" fill="#0F5156"/>
    <path d="M126.175 13.2905C129.014 13.2905 131.308 14.1938 133.057 16.0005C134.806 17.7785 135.681 20.2734 135.681 23.4852V37.4654H129.659V24.3025C129.659 22.4098 129.186 20.9616 128.239 19.9579C127.293 18.9256 126.003 18.4094 124.368 18.4094C122.705 18.4094 121.386 18.9256 120.41 19.9579C119.464 20.9616 118.991 22.4098 118.991 24.3025V37.4654H112.969V13.6346H118.991V16.6027C119.794 15.5703 120.812 14.7674 122.045 14.1938C123.307 13.5916 124.683 13.2905 126.175 13.2905Z" fill="#0F5156"/>
    <path d="M146.699 18.5814V30.1097C146.699 30.9126 146.885 31.5005 147.258 31.8733C147.66 32.2175 148.319 32.3895 149.237 32.3895H152.033V37.4654H148.247C143.172 37.4654 140.634 34.9992 140.634 30.0667V18.5814H136.165V13.6346H140.634V7.74144H146.699V13.6346V18.5814Z" fill="#0F5156"/>
    <path d="M174.612 13.6346L159.857 48.7355H153.448L158.61 36.8632L149.06 13.6346H155.814L161.965 30.2817L168.202 13.6346H174.612Z" fill="#0F5156"/>
</svg>