<svg xmlns="http://www.w3.org/2000/svg" width="255" height="54" viewBox="0 0 255 54" fill="none">
    <path d="M0 35.7171L18.0976 27.6624L28.5143 33.7034L30.6187 53.5225L17.782 53.4165L19.6759 39.6386L17.4663 38.3667L6.62879 46.8455L0 35.7171Z" fill="#B4C0D3"/>
    <path d="M29.6724 32.8547L45.6656 44.619L51.9787 33.2787L39.1421 28.0854V25.5418L51.9787 20.2426L45.6656 9.0083L29.6724 20.7725V32.8547Z" fill="#00D3AB"/>
    <path d="M28.5143 19.819L30.6187 0L17.782 0.211966L19.6759 13.9899L17.4663 15.2617L6.52357 6.78299L0 17.8053L18.0976 25.8601L28.5143 19.819Z" fill="#4876EF"/>
    <path d="M94.8046 24.386V42.9536H101.713V19.2909H91.6519V24.386H94.8046Z" fill="#4876EE"/>
    <path d="M94.5883 15.9661C95.2218 16.6281 96.1862 16.9591 97.4816 16.9591C98.7771 16.9591 99.7269 16.6281 100.331 15.9661C100.965 15.275 101.281 14.4113 101.281 13.3753C101.281 12.31 100.965 11.4464 100.331 10.7845C99.7269 10.0936 98.7771 9.74805 97.4816 9.74805C96.1862 9.74805 95.2218 10.0936 94.5883 10.7845C93.9841 11.4464 93.6816 12.31 93.6816 13.3753C93.6816 14.4113 93.9841 15.275 94.5883 15.9661Z" fill="#4876EE"/>
    <path d="M70.7535 42.4353C72.7109 43.3277 75.1147 43.7741 77.9642 43.7741C80.6412 43.7741 82.9442 43.3566 84.8731 42.5218C86.8019 41.6871 88.2844 40.521 89.3204 39.0243C90.3857 37.4984 90.9183 35.728 90.9183 33.7129C90.9183 31.7555 90.4149 30.1003 89.4074 28.7472C88.4283 27.3655 87.0613 26.286 85.3049 25.509C83.5491 24.7027 81.5194 24.1989 79.2165 23.9976L76.7988 23.7817C75.3594 23.6663 74.3227 23.278 73.6892 22.6157C73.0565 21.9537 72.7394 21.1763 72.7394 20.2842C72.7394 19.593 72.9125 18.9599 73.2574 18.3842C73.603 17.7796 74.121 17.3046 74.8122 16.9591C75.5319 16.6138 76.4101 16.441 77.4461 16.441C78.5399 16.441 79.4466 16.6423 80.1663 17.0456C80.3248 17.1308 80.475 17.2219 80.6169 17.3186L80.651 17.3425C80.7038 17.379 80.7559 17.4169 80.806 17.4552C81.2434 17.7893 81.5917 18.1853 81.8504 18.6432C82.2245 19.2766 82.4122 19.9817 82.4122 20.7591H89.3204C89.3204 18.6863 88.8455 16.8871 87.8957 15.3615C86.9459 13.8071 85.5788 12.6125 83.7939 11.7774C82.0375 10.9138 79.9215 10.482 77.4461 10.482C75.0855 10.482 73.0419 10.8853 71.3146 11.6912C69.5874 12.4686 68.2343 13.5912 67.2559 15.059C66.3054 16.5273 65.8305 18.2691 65.8305 20.2842C65.8305 23.0763 66.7664 25.3216 68.6376 27.0203C70.5087 28.7186 73.0133 29.6973 76.1507 29.9564L78.526 30.1723C80.4542 30.345 81.8504 30.7337 82.714 31.338C83.5776 31.9137 84.0094 32.7054 84.0094 33.7129C84.0094 34.176 83.9337 34.6103 83.7821 35.016C83.6694 35.3171 83.5151 35.6025 83.319 35.872C82.858 36.4765 82.1814 36.9515 81.2893 37.297C80.3972 37.6423 79.2888 37.8151 77.9642 37.8151C76.4963 37.8151 75.3017 37.6138 74.3804 37.2105C73.4591 36.7787 72.7686 36.2175 72.3076 35.5267C71.8758 34.8355 71.6602 34.0874 71.6602 33.2811H64.7944C64.7944 35.3251 65.2979 37.1385 66.3054 38.7218C67.313 40.2766 68.7961 41.5143 70.7535 42.4353Z" fill="#4876EE"/>
    <path d="M117.128 43.2558C114.739 43.2558 112.81 42.9679 111.342 42.3921C109.873 41.7876 108.794 40.7946 108.103 39.413C107.441 38.0021 107.11 36.1025 107.11 33.7129V24.3429H103.526V19.2909H107.11V12.9004H113.544V19.2909H120.453V24.3429H113.544V33.9723C113.544 35.0949 113.832 35.9585 114.408 36.5628C115.012 37.1385 115.861 37.4264 116.955 37.4264H120.453V43.2558H117.128Z" fill="#4876EE"/>
    <path fill-rule="evenodd" clip-rule="evenodd" d="M128.771 42.7377C130.325 43.4286 132.11 43.7741 134.125 43.7741C136.111 43.7741 137.868 43.4286 139.393 42.7377C140.919 42.0469 142.186 41.0825 143.193 39.8448C144.201 38.6067 144.877 37.1962 145.222 35.6129H138.875C138.587 36.3326 138.04 36.9372 137.234 37.4264C136.428 37.9159 135.392 38.1607 134.125 38.1607C133.341 38.1607 132.639 38.0678 132.022 37.8822C131.552 37.741 131.131 37.546 130.757 37.297C129.894 36.7213 129.26 35.9151 128.857 34.879C128.745 34.5838 128.65 34.2751 128.569 33.9535C128.487 33.6277 128.421 33.2888 128.371 32.9359H145.654V30.6041C145.654 28.445 145.194 26.4588 144.272 24.6453C143.351 22.8027 142.013 21.3202 140.257 20.1976C138.53 19.0461 136.399 18.4704 133.866 18.4704C131.937 18.4704 130.21 18.816 128.684 19.5068C127.188 20.1688 125.936 21.0755 124.928 22.227C123.921 23.3784 123.143 24.6885 122.596 26.1567C122.078 27.5957 121.819 29.107 121.819 30.6903V31.5539C121.819 33.0798 122.078 34.5765 122.596 36.0447C123.143 37.4841 123.921 38.7938 124.928 39.9741C125.964 41.1256 127.245 42.0469 128.771 42.7377ZM128.49 28.6661C128.509 28.5747 128.529 28.4847 128.551 28.396C128.611 28.1519 128.68 27.918 128.759 27.6944C128.803 27.5672 128.85 27.443 128.901 27.3224C129.332 26.2571 129.966 25.4512 130.8 24.9044C131.112 24.6999 131.45 24.5337 131.814 24.4058C132.425 24.1913 133.109 24.0839 133.866 24.0839C135.047 24.0839 136.025 24.3575 136.802 24.9044C137.608 25.4224 138.213 26.1852 138.616 27.1927C138.649 27.2741 138.68 27.3568 138.71 27.4406C138.757 27.5741 138.801 27.7111 138.843 27.8516C138.904 28.0605 138.957 28.2768 139.004 28.5003C139.038 28.6651 139.068 28.8337 139.094 29.0065H128.424C128.444 28.8911 128.466 28.7778 128.49 28.6661Z" fill="#4876EE"/>
    <path d="M148.505 42.9536V19.2909H153.989V25.2506C154.063 24.8964 154.148 24.5563 154.244 24.2302C154.324 23.9556 154.412 23.6906 154.507 23.4362C155.112 21.824 156.019 20.6152 157.227 19.8089C158.436 18.9742 159.919 18.557 161.675 18.557H161.977C163.762 18.557 165.245 18.9742 166.425 19.8089C167.634 20.6152 168.541 21.824 169.145 23.4362L169.193 23.5578L169.234 23.6691C169.261 23.5905 169.289 23.513 169.318 23.4362C169.951 21.824 170.873 20.6152 172.082 19.8089C173.29 18.9742 174.773 18.557 176.529 18.557H176.832C178.616 18.557 180.113 18.9742 181.322 19.8089C182.56 20.6152 183.496 21.824 184.129 23.4362C184.762 25.0483 185.079 27.0634 185.079 29.4814V42.9536H178.17V29.0927C178.17 27.7973 177.825 26.7467 177.133 25.9408C176.472 25.1345 175.522 24.7316 174.284 24.7316C173.046 24.7316 172.067 25.1491 171.348 25.9839C170.628 26.7898 170.268 27.8693 170.268 29.2224V42.9536H163.316V29.0927C163.316 27.7973 162.971 26.7467 162.28 25.9408C161.618 25.1345 160.682 24.7316 159.473 24.7316C158.206 24.7316 157.213 25.1491 156.494 25.9839C155.774 26.7898 155.414 27.8693 155.414 29.2224V42.9536H148.505Z" fill="#4876EE"/>
    <path fill-rule="evenodd" clip-rule="evenodd" d="M203.534 38.3943V42.9536H209.018V28.445C209.018 26.2571 208.586 24.4726 207.722 23.0906C206.859 21.6801 205.592 20.6294 203.923 19.9386C202.282 19.2478 200.252 18.9022 197.834 18.9022C197.31 18.9022 196.763 18.9078 196.193 18.9192C195.855 18.9262 195.51 18.9349 195.157 18.9453C194.207 18.9742 193.286 19.0173 192.393 19.075L191.712 19.1209C191.362 19.1452 191.033 19.1692 190.723 19.1935C190.491 19.2116 190.271 19.2297 190.062 19.2478V25.0772C190.954 25.0194 191.947 24.9617 193.041 24.9044C193.347 24.8884 193.651 24.8734 193.952 24.8595C194.386 24.8393 194.815 24.822 195.239 24.8067C195.575 24.7945 195.907 24.7837 196.237 24.7747C197.273 24.7458 198.108 24.7316 198.741 24.7316C200.007 24.7316 200.929 25.0337 201.504 25.6383C202.08 26.2429 202.368 27.1496 202.368 28.3588V28.445H198.093C195.992 28.445 194.135 28.7186 192.523 29.2655C190.911 29.7836 189.659 30.6041 188.766 31.7267C187.874 32.8208 187.428 34.2313 187.428 35.9585C187.428 37.5418 187.787 38.9092 188.507 40.0607C189.227 41.1833 190.22 42.0469 191.487 42.6512C192.782 43.2558 194.279 43.5582 195.977 43.5582C197.618 43.5582 199 43.2558 200.123 42.6512C201.274 42.0469 202.166 41.1833 202.8 40.0607C202.911 39.8715 203.015 39.6751 203.112 39.4714C203.249 39.1828 203.371 38.8796 203.479 38.5619L203.534 38.3943ZM202.368 34.1882V32.2882H198.05C196.841 32.2882 195.906 32.5903 195.244 33.1949C194.61 33.7706 194.293 34.5623 194.293 35.5698C194.293 36.044 194.372 36.4752 194.53 36.8635C194.689 37.2529 194.927 37.5988 195.244 37.9016C195.906 38.4774 196.841 38.7653 198.05 38.7653C198.28 38.7653 198.503 38.7538 198.717 38.7312C198.893 38.7128 199.063 38.6867 199.228 38.653C199.545 38.5886 199.843 38.4965 200.123 38.3766C200.756 38.0887 201.274 37.6138 201.677 36.9515C202.08 36.2895 202.31 35.3682 202.368 34.1882Z" fill="#4876EE"/>
    <path d="M213.152 42.9536V19.2909H218.636V27.1013C218.899 24.8717 219.561 23.0739 220.623 21.7089C222.062 19.8955 224.134 18.9888 226.84 18.9888H227.747V24.9475H226.02C224.12 24.9475 222.652 25.4655 221.616 26.5019C220.579 27.5095 220.061 28.9777 220.061 30.9062V42.9536H213.152Z" fill="#4876EE"/>
    <path d="M236.508 31.8995H238.797L246.267 42.9536H254.039L244.567 29.3778L252.355 19.2909H245.102L236.508 30.5422V11.4322H229.6V42.9536H236.508V31.8995Z" fill="#4876EE"/>
</svg>