<svg xmlns="http://www.w3.org/2000/svg" width="192" height="64" viewBox="0 0 192 64" fill="none">
    <path d="M24.4415 0L0 38.1287H21.9973L19.5532 63.5479L43.9947 25.4191H21.9973L24.4415 0Z" fill="#0E1C2A"/>
    <path d="M87.2989 28.2986V37.3461H74.2485V49.7385H63.9946V13H90.0406V22.0476H74.2485V28.2986H87.2989Z" fill="#0E1C2A"/>
    <path d="M104.341 13V49.7385H94.9098V13H104.341Z" fill="#0E1C2A"/>
    <path d="M119.903 20.9509C121.365 20.9509 122.791 21.2799 124.18 21.9379C125.606 22.5593 126.775 23.3636 127.689 24.3506V21.7734H137.121V49.7385H127.689V45.0777C126.995 46.613 125.935 47.9108 124.509 48.9709C123.083 50.031 121.365 50.5611 119.355 50.5611C117.271 50.5611 115.315 50.031 113.487 48.9709C111.66 47.9108 110.161 46.284 108.991 44.0907C107.858 41.8608 107.291 39.0643 107.291 35.7011C107.291 32.5573 107.858 29.8888 108.991 27.6954C110.161 25.5021 111.696 23.8388 113.597 22.7056C115.535 21.5358 117.637 20.9509 119.903 20.9509ZM121.877 30.1629C120.524 30.1629 119.391 30.7113 118.477 31.8079C117.6 32.9046 117.161 34.2023 117.161 35.7011C117.161 37.1999 117.618 38.4611 118.532 39.4847C119.446 40.5082 120.652 41.02 122.151 41.02C122.955 41.02 123.778 40.8189 124.619 40.4168C125.459 39.9782 126.172 39.3384 126.757 38.4976C127.379 37.6203 127.689 36.5054 127.689 35.1528V32.4659C126.885 31.8079 125.971 31.2596 124.948 30.8209C123.961 30.3823 122.937 30.1629 121.877 30.1629Z" fill="#0E1C2A"/>
    <path d="M151.75 20.9509C153.578 20.9509 155.26 21.225 156.795 21.7734C158.367 22.2852 159.628 22.998 160.579 23.9119V31.3144C159.628 30.7295 158.55 30.1812 157.343 29.6694C156.137 29.1211 154.839 28.8469 153.45 28.8469C152.573 28.8469 151.787 29.0297 151.092 29.3953C150.434 29.7243 150.105 30.2543 150.105 30.9854C150.105 31.4972 150.306 31.8811 150.709 32.1369C151.111 32.3928 151.897 32.667 153.066 32.9594L154.766 33.3981C159.628 34.641 162.059 37.2548 162.059 41.2393C162.059 43.0671 161.511 44.6938 160.414 46.1195C159.354 47.5086 157.947 48.6053 156.192 49.4095C154.474 50.1772 152.609 50.5611 150.599 50.5611C148.515 50.5611 146.578 50.2686 144.787 49.6837C142.995 49.0623 141.46 48.3129 140.18 47.4355V40.0878C141.496 40.8921 142.977 41.5683 144.622 42.1167C146.304 42.665 147.802 42.9392 149.118 42.9392C150.178 42.9392 150.946 42.8112 151.421 42.5553C151.933 42.2994 152.189 41.8425 152.189 41.1845C152.189 40.6727 151.897 40.2889 151.312 40.033C150.727 39.7405 149.886 39.4115 148.789 39.046L145.993 38.1686C143.946 37.5472 142.447 36.5785 141.497 35.2625C140.546 33.9099 140.071 32.2649 140.071 30.3274C140.071 28.39 140.583 26.7267 141.606 25.3376C142.63 23.9485 144.019 22.8701 145.774 22.1024C147.565 21.3347 149.557 20.9509 151.75 20.9509Z" fill="#0E1C2A"/>
    <path d="M181.514 20.9509C184.365 20.9509 186.687 21.9196 188.478 23.8571C190.306 25.7945 191.22 28.6641 191.22 32.4659V49.7385H181.788L181.733 33.9465C181.733 32.5573 181.35 31.5886 180.582 31.0403C179.814 30.4554 178.955 30.1629 178.005 30.1629C176.981 30.1629 176.122 30.4371 175.428 30.9854C174.733 31.4972 174.13 32.1187 173.618 32.8498V49.7385H164.187V13H173.618V25.3924C174.495 24.1861 175.556 23.1442 176.798 22.2669C178.078 21.3895 179.65 20.9509 181.514 20.9509Z" fill="#0E1C2A"/>
</svg>