<svg xmlns="http://www.w3.org/2000/svg" width="242" height="47" viewBox="0 0 242 47" fill="none">
    <path d="M5.96089 5.21512C9.25588 2.06927 13.73 0.233026 18.2647 0.00466052C19.8166 0.00466052 21.3732 0.0139816 22.9252 0C22.846 1.66381 22.9252 3.33227 22.8786 4.99608C22.6595 8.71518 21.2847 12.3504 18.9684 15.2679C15.9577 19.192 11.3531 21.8252 6.46423 22.5057C4.32971 22.8505 2.16257 22.6315 0.014068 22.6921C0.0513522 20.8605 -0.0651609 19.0242 0.0793153 17.1973C0.498762 12.6673 2.63794 8.32835 5.96089 5.21512Z" fill="#FFC100"/>
    <path d="M24.3623 0C26.0261 0.0186421 27.6899 -0.00932104 29.3584 0.00932104C33.5109 0.302934 37.6075 1.89683 40.7347 4.66052C44.1835 7.61995 46.5464 11.8517 47.1523 16.3724C47.4179 18.4696 47.2501 20.5902 47.3527 22.6967C45.8986 22.6921 44.4492 22.6874 42.9951 22.6967C39.4204 22.5989 35.9064 21.4431 32.9144 19.495C31.5348 18.5069 30.118 17.5049 29.0834 16.1347C26.8137 13.5994 25.2711 10.4163 24.6885 7.06069C24.2505 4.73043 24.4276 2.35356 24.3623 0Z" fill="#FFC100"/>
    <path d="M0.0172277 24.0295C1.49461 24.1134 2.97666 23.9596 4.44938 24.1228C10.7551 24.2579 16.8743 27.7999 20.1414 33.1921C22.0149 36.2121 23.0216 39.7914 22.8911 43.3474C22.8864 44.5125 22.905 45.673 22.8724 46.8335C20.5328 46.7636 18.17 46.9546 15.8537 46.5026C10.7085 45.6357 5.97803 42.5738 3.13046 38.2022C0.972634 35.0237 -0.103946 31.1415 0.00790668 27.3059C0.00790668 26.2107 0.00790668 25.1201 0.0172277 24.0295Z" fill="#FFC100"/>
    <path d="M39.4781 24.5233C42.0135 23.9594 44.628 24.0526 47.2053 24.0526L47.3171 24.1645C47.2612 26.6019 47.4523 29.0674 46.9629 31.4768C45.933 36.883 42.3537 41.7113 37.5394 44.3632C34.5426 46.0316 31.1032 46.8519 27.6777 46.8146C26.5825 46.8193 25.4826 46.796 24.3874 46.8286C24.3874 44.8106 24.3035 42.7833 24.5318 40.7746C25.0631 35.9137 27.6917 31.3883 31.4714 28.331C33.8109 26.4854 36.5606 25.1479 39.4781 24.5233Z" fill="#FFC100"/>
    <path d="M66.4498 37.8068C66.4498 38.6273 66.1658 39.3215 65.5977 39.8895C65.0613 40.426 64.3828 40.6942 63.5623 40.6942C62.7734 40.6942 62.1107 40.426 61.5742 39.8895C61.0378 39.3215 60.7695 38.6273 60.7695 37.8068V8.55348C60.7695 7.733 61.0378 7.05452 61.5742 6.51805C62.1423 5.95003 62.8365 5.66602 63.657 5.66602C64.4775 5.66602 65.1402 5.95003 65.6451 6.51805C66.1816 7.05452 66.4498 7.733 66.4498 8.55348V37.8068Z" fill="black"/>
    <path d="M89.2488 15.3698C90.0693 15.3698 90.7478 15.6538 91.2843 16.2218C91.8207 16.7583 92.089 17.4368 92.089 18.2572V30.2804C92.089 33.6255 91.158 36.2763 89.2962 38.2328C87.4343 40.1893 84.752 41.1676 81.2491 41.1676C77.7463 41.1676 75.064 40.1893 73.2021 38.2328C71.3718 36.2763 70.4567 33.6255 70.4567 30.2804V18.2572C70.4567 17.4368 70.7249 16.7583 71.2614 16.2218C71.7978 15.6538 72.4763 15.3698 73.2968 15.3698C74.1173 15.3698 74.7957 15.6538 75.3322 16.2218C75.8687 16.7583 76.1369 17.4368 76.1369 18.2572V30.2804C76.1369 32.2054 76.5629 33.6413 77.415 34.588C78.267 35.5031 79.5451 35.9607 81.2491 35.9607C82.9848 35.9607 84.2786 35.5031 85.1306 34.588C85.9827 33.6413 86.4087 32.2054 86.4087 30.2804V18.2572C86.4087 17.4368 86.6769 16.7583 87.2134 16.2218C87.7499 15.6538 88.4284 15.3698 89.2488 15.3698Z" fill="black"/>
    <path d="M109.173 14.8964C111.698 14.8964 113.559 15.5118 114.759 16.7425C115.958 17.9417 116.747 19.5037 117.125 21.4287L116.321 21.0027L116.699 20.2453C117.078 19.5195 117.662 18.7464 118.451 17.9259C119.24 17.0739 120.186 16.3638 121.291 15.7958C122.427 15.1962 123.689 14.8964 125.078 14.8964C127.35 14.8964 129.07 15.3856 130.237 16.3638C131.436 17.3421 132.257 18.6517 132.699 20.2927C133.141 21.9021 133.361 23.7008 133.361 25.6889V37.8068C133.361 38.6273 133.093 39.3215 132.557 39.8895C132.02 40.426 131.342 40.6942 130.521 40.6942C129.701 40.6942 129.022 40.426 128.486 39.8895C127.949 39.3215 127.681 38.6273 127.681 37.8068V25.6889C127.681 24.6475 127.555 23.7166 127.302 22.8961C127.05 22.0441 126.592 21.3656 125.93 20.8607C125.267 20.3558 124.32 20.1033 123.09 20.1033C121.89 20.1033 120.865 20.3558 120.013 20.8607C119.161 21.3656 118.514 22.0441 118.072 22.8961C117.662 23.7166 117.457 24.6475 117.457 25.6889V37.8068C117.457 38.6273 117.188 39.3215 116.652 39.8895C116.116 40.426 115.437 40.6942 114.617 40.6942C113.796 40.6942 113.118 40.426 112.581 39.8895C112.045 39.3215 111.776 38.6273 111.776 37.8068V25.6889C111.776 24.6475 111.65 23.7166 111.398 22.8961C111.145 22.0441 110.688 21.3656 110.025 20.8607C109.362 20.3558 108.416 20.1033 107.185 20.1033C105.986 20.1033 104.96 20.3558 104.108 20.8607C103.256 21.3656 102.609 22.0441 102.167 22.8961C101.757 23.7166 101.552 24.6475 101.552 25.6889V37.8068C101.552 38.6273 101.284 39.3215 100.747 39.8895C100.211 40.426 99.5323 40.6942 98.7118 40.6942C97.8914 40.6942 97.2129 40.426 96.6764 39.8895C96.14 39.3215 95.8717 38.6273 95.8717 37.8068V18.2572C95.8717 17.4368 96.14 16.7583 96.6764 16.2218C97.2129 15.6538 97.8914 15.3698 98.7118 15.3698C99.5323 15.3698 100.211 15.6538 100.747 16.2218C101.284 16.7583 101.552 17.4368 101.552 18.2572V20.2927L100.842 20.1507C101.126 19.6142 101.52 19.0462 102.025 18.4466C102.53 17.8154 103.146 17.2316 103.871 16.6952C104.597 16.1587 105.402 15.7327 106.286 15.4171C107.169 15.07 108.132 14.8964 109.173 14.8964Z" fill="black"/>
    <path d="M142.491 37.8068C142.491 38.6273 142.223 39.3215 141.687 39.8895C141.15 40.426 140.472 40.6942 139.651 40.6942C138.831 40.6942 138.152 40.426 137.616 39.8895C137.079 39.3215 136.811 38.6273 136.811 37.8068V18.2572C136.811 17.4368 137.079 16.7583 137.616 16.2218C138.152 15.6538 138.831 15.3698 139.651 15.3698C140.472 15.3698 141.15 15.6538 141.687 16.2218C142.223 16.7583 142.491 17.4368 142.491 18.2572V37.8068ZM139.604 12.293C138.531 12.293 137.773 12.1194 137.332 11.7723C136.89 11.4252 136.669 10.8098 136.669 9.92621V9.02683C136.669 8.11168 136.906 7.49632 137.379 7.18075C137.884 6.83362 138.641 6.66006 139.651 6.66006C140.756 6.66006 141.529 6.83362 141.971 7.18075C142.412 7.52788 142.633 8.14324 142.633 9.02683V9.92621C142.633 10.8414 142.397 11.4725 141.923 11.8196C141.45 12.1352 140.677 12.293 139.604 12.293Z" fill="black"/>
    <path d="M159.5 14.8964C161.835 14.8964 163.603 15.3856 164.802 16.3638C166.032 17.3421 166.869 18.6517 167.311 20.2927C167.784 21.9021 168.021 23.7008 168.021 25.6889V37.8068C168.021 38.6273 167.752 39.3215 167.216 39.8895C166.679 40.426 166.001 40.6942 165.18 40.6942C164.36 40.6942 163.681 40.426 163.145 39.8895C162.609 39.3215 162.34 38.6273 162.34 37.8068V25.6889C162.34 24.6475 162.198 23.7166 161.914 22.8961C161.662 22.0441 161.188 21.3656 160.494 20.8607C159.8 20.3558 158.806 20.1033 157.512 20.1033C156.25 20.1033 155.177 20.3558 154.293 20.8607C153.441 21.3656 152.779 22.0441 152.305 22.8961C151.863 23.7166 151.642 24.6475 151.642 25.6889V37.8068C151.642 38.6273 151.374 39.3215 150.838 39.8895C150.301 40.426 149.623 40.6942 148.802 40.6942C147.982 40.6942 147.303 40.426 146.767 39.8895C146.23 39.3215 145.962 38.6273 145.962 37.8068V18.2572C145.962 17.4368 146.23 16.7583 146.767 16.2218C147.303 15.6538 147.982 15.3698 148.802 15.3698C149.623 15.3698 150.301 15.6538 150.838 16.2218C151.374 16.7583 151.642 17.4368 151.642 18.2572V20.2927L150.932 20.1507C151.216 19.6142 151.627 19.0462 152.163 18.4466C152.7 17.8154 153.331 17.2316 154.057 16.6952C154.782 16.1587 155.603 15.7327 156.518 15.4171C157.433 15.07 158.427 14.8964 159.5 14.8964Z" fill="black"/>
    <path d="M196.124 28.0557C196.124 30.6434 195.54 32.9312 194.372 34.9193C193.236 36.8759 191.69 38.4064 189.733 39.5109C187.809 40.6154 185.647 41.1676 183.249 41.1676C180.85 41.1676 178.673 40.6154 176.716 39.5109C174.791 38.4064 173.245 36.8759 172.077 34.9193C170.941 32.9312 170.373 30.6434 170.373 28.0557C170.373 25.468 170.941 23.1959 172.077 21.2394C173.245 19.2513 174.791 17.705 176.716 16.6005C178.673 15.4645 180.85 14.8964 183.249 14.8964C185.647 14.8964 187.809 15.4645 189.733 16.6005C191.69 17.705 193.236 19.2513 194.372 21.2394C195.54 23.1959 196.124 25.468 196.124 28.0557ZM190.444 28.0557C190.444 26.4463 190.112 25.0578 189.449 23.8902C188.818 22.691 187.951 21.7601 186.846 21.0974C185.773 20.4347 184.574 20.1033 183.249 20.1033C181.923 20.1033 180.708 20.4347 179.604 21.0974C178.531 21.7601 177.663 22.691 177 23.8902C176.369 25.0578 176.054 26.4463 176.054 28.0557C176.054 29.6335 176.369 31.022 177 32.2212C177.663 33.3888 178.531 34.304 179.604 34.9667C180.708 35.6294 181.923 35.9607 183.249 35.9607C184.574 35.9607 185.773 35.6294 186.846 34.9667C187.951 34.304 188.818 33.3888 189.449 32.2212C190.112 31.022 190.444 29.6335 190.444 28.0557Z" fill="black"/>
    <path d="M217.295 15.3698C218.115 15.3698 218.794 15.6538 219.33 16.2218C219.867 16.7583 220.135 17.4368 220.135 18.2572V30.2804C220.135 33.6255 219.204 36.2763 217.342 38.2328C215.48 40.1893 212.798 41.1676 209.295 41.1676C205.792 41.1676 203.11 40.1893 201.248 38.2328C199.418 36.2763 198.503 33.6255 198.503 30.2804V18.2572C198.503 17.4368 198.771 16.7583 199.307 16.2218C199.844 15.6538 200.522 15.3698 201.343 15.3698C202.163 15.3698 202.842 15.6538 203.378 16.2218C203.915 16.7583 204.183 17.4368 204.183 18.2572V30.2804C204.183 32.2054 204.609 33.6413 205.461 34.588C206.313 35.5031 207.591 35.9607 209.295 35.9607C211.031 35.9607 212.325 35.5031 213.177 34.588C214.029 33.6413 214.455 32.2054 214.455 30.2804V18.2572C214.455 17.4368 214.723 16.7583 215.26 16.2218C215.796 15.6538 216.474 15.3698 217.295 15.3698Z" fill="black"/>
    <path d="M222.45 36.7654C222.135 36.3236 221.993 35.7556 222.024 35.0613C222.056 34.3671 222.466 33.7675 223.255 33.2626C223.76 32.947 224.297 32.8208 224.865 32.8839C225.433 32.9155 225.985 33.1995 226.521 33.7359C227.436 34.6511 228.399 35.3611 229.409 35.866C230.419 36.3709 231.681 36.6234 233.196 36.6234C233.669 36.5918 234.19 36.5287 234.758 36.4341C235.326 36.3078 235.815 36.0554 236.225 35.6767C236.667 35.2665 236.888 34.6511 236.888 33.8306C236.888 33.1364 236.651 32.5841 236.178 32.1739C235.704 31.7636 235.073 31.4165 234.284 31.1325C233.527 30.8485 232.675 30.5802 231.728 30.3278C230.75 30.0438 229.74 29.7282 228.699 29.3811C227.689 29.0339 226.758 28.5921 225.906 28.0557C225.054 27.4877 224.36 26.7461 223.823 25.8309C223.287 24.9158 223.018 23.7639 223.018 22.3754C223.018 20.7976 223.46 19.4564 224.344 18.3519C225.227 17.2474 226.363 16.3954 227.752 15.7958C229.172 15.1962 230.655 14.8964 232.202 14.8964C233.18 14.8964 234.205 15.0227 235.278 15.2751C236.351 15.496 237.377 15.8747 238.355 16.4112C239.333 16.9161 240.154 17.5945 240.817 18.4466C241.164 18.9199 241.369 19.488 241.432 20.1507C241.495 20.8134 241.195 21.4129 240.533 21.9494C240.059 22.3281 239.507 22.5017 238.876 22.4701C238.245 22.407 237.724 22.1861 237.314 21.8074C236.777 21.1131 236.051 20.5609 235.136 20.1507C234.253 19.7404 233.227 19.5353 232.06 19.5353C231.586 19.5353 231.065 19.5984 230.497 19.7246C229.961 19.8193 229.488 20.056 229.077 20.4347C228.667 20.7818 228.462 21.3498 228.462 22.1388C228.462 22.8646 228.699 23.4484 229.172 23.8902C229.645 24.3004 230.277 24.6475 231.065 24.9315C231.886 25.184 232.754 25.4365 233.669 25.6889C234.616 25.9414 235.578 26.2412 236.556 26.5883C237.535 26.9354 238.434 27.393 239.255 27.961C240.075 28.529 240.738 29.2706 241.243 30.1858C241.748 31.0694 242 32.2054 242 33.5939C242 35.2033 241.527 36.5761 240.58 37.7121C239.633 38.8482 238.45 39.716 237.03 40.3156C235.61 40.8836 234.158 41.1676 232.675 41.1676C230.813 41.1676 228.951 40.852 227.089 40.2209C225.227 39.5582 223.681 38.4064 222.45 36.7654Z" fill="black"/>
</svg>